<svg width="145" height="59" viewBox="0 0 145 59" fill="none" xmlns="http://www.w3.org/2000/svg">
<path d="M0.234697 14.1279H9.63311V43.6745H0.234697V14.1279ZM0 5.43421C0 4.74869 0.12731 4.10263 0.391507 3.51523C0.646091 2.91822 0.998453 2.39943 1.44862 1.94894C1.89944 1.49878 2.41822 1.14639 3.0149 0.891475C3.6023 0.627278 4.24873 0.5 4.93392 0.5C5.61944 0.5 6.26551 0.627278 6.85258 0.891475C7.44992 1.14639 7.96836 1.49878 8.41919 1.94894C8.86935 2.39943 9.22171 2.91855 9.4763 3.51523C9.7405 4.10263 9.86781 4.74902 9.86781 5.43421C9.86781 6.1194 9.7405 6.76548 9.4763 7.35288C9.22171 7.9499 8.86935 8.46901 8.41919 8.91917C7.96836 9.36934 7.44959 9.72171 6.85258 9.97662C6.26518 10.2408 5.61911 10.3681 4.93392 10.3681C4.2484 10.3681 3.6023 10.2408 3.0149 9.97662C2.41789 9.72171 1.89911 9.36934 1.44862 8.91917C0.998453 8.46901 0.646091 7.94957 0.391507 7.35288C0.12731 6.76548 0 6.11907 0 5.43421ZM44.6692 14.1279V43.6845C44.6692 45.6913 44.4342 47.4631 43.9549 48.9999C43.4752 50.547 42.8093 51.8786 41.9477 53.0239C41.0862 54.1596 40.0778 55.1093 38.9129 55.8631C37.7477 56.6169 36.4848 57.2238 35.1436 57.6839C33.7924 58.1444 32.373 58.4672 30.8849 58.6632C29.3869 58.8491 27.8988 58.9469 26.4108 58.9469C25.2947 58.9469 24.159 58.8979 22.9941 58.7905C21.8289 58.6827 20.6442 58.506 19.4502 58.2418C18.2558 57.9873 17.0711 57.6448 15.8764 57.2238C14.692 56.8028 13.5268 56.2741 12.3815 55.6184L15.9646 49.0785C16.8848 49.5777 17.7758 49.9984 18.6377 50.3318C19.4989 50.6647 20.3508 50.9289 21.2027 51.1344C22.0543 51.3303 22.9063 51.4868 23.7678 51.5749C24.629 51.6727 25.5101 51.7218 26.4111 51.7218C27.7033 51.7218 28.8976 51.565 29.975 51.2517C31.0616 50.9289 31.9918 50.4492 32.7747 49.8031C33.5581 49.1471 34.1749 48.3151 34.6152 47.3067C35.0557 46.2983 35.2712 45.094 35.2712 43.6941V39.7974C34.8306 40.4631 34.3016 41.0899 33.675 41.6577C33.0585 42.2352 32.3435 42.7344 31.5409 43.165C30.7381 43.5963 29.8371 43.9387 28.8486 44.1837C27.8501 44.4283 26.7632 44.5556 25.5688 44.5556C23.3757 44.5556 21.3496 44.2029 19.5088 43.4882C17.6585 42.7835 16.0726 41.7552 14.7311 40.4239C13.3902 39.0824 12.3424 37.4379 11.5985 35.4897C10.8543 33.5512 10.4824 31.3484 10.4824 28.901C10.4824 26.4533 10.8543 24.2506 11.5985 22.312C12.3424 20.3639 13.3902 18.7193 14.7311 17.3778C16.0726 16.0465 17.6585 15.0186 19.5088 14.3135C21.3496 13.5988 23.3757 13.2464 25.5688 13.2464C26.5467 13.2464 27.452 13.3316 28.2966 13.5023C25.4077 15.9951 23.3183 18.8108 21.646 21C20.9458 20.0118 20.2454 19.024 19.5457 18.0361C19.8573 23.3118 17.4725 26.6917 17.569 29.9515C17.6671 33.2532 19.7996 36.7461 24.0168 37.4061C35.2241 39.1606 36.0847 26.3267 35.6007 19.8454C34.585 22.1681 33.7576 22.8152 32.5434 22.368C30.2796 21.534 30.0197 17.8104 30.9671 14.3712C31.1637 14.4613 31.355 14.5565 31.5409 14.6566C32.3435 15.0872 33.0585 15.596 33.675 16.1834C34.3016 16.7612 34.8306 17.3778 35.2712 18.0239V14.1275H44.6696L44.6692 14.1279ZM46.5166 43.6745V14.1279H55.915V17.2313C56.7762 15.9093 57.8536 14.9208 59.1457 14.2552C60.4279 13.5796 61.9846 13.2468 63.7962 13.2468C66.2436 13.2468 68.329 13.5895 70.0521 14.2843C71.7652 14.9698 73.1654 15.9686 74.2424 17.2611C75.329 18.5632 76.1124 20.149 76.6119 22.0186C77.1111 23.879 77.3558 25.9939 77.3558 28.3435V43.6745H67.9574V28.3435C67.9574 27.1196 67.8599 26.0227 67.6537 25.0538C67.4585 24.0842 67.1253 23.2621 66.6553 22.5865C66.1856 21.9013 65.5687 21.3825 64.8049 21.0202C64.0415 20.6582 63.0822 20.4722 61.9365 20.4722C60.7909 20.4722 59.8319 20.6582 59.0678 21.0202C58.3041 21.3825 57.6875 21.9016 57.2174 22.5865C56.7477 23.2621 56.4146 24.0845 56.2187 25.0538C56.0135 26.0227 55.9153 27.1193 55.9153 28.3435V43.6745H46.5166ZM79.408 14.1279H88.8064V43.6745H79.408V14.1279ZM79.1733 5.43421C79.1733 4.74869 79.3006 4.10263 79.5648 3.51523C79.8197 2.91822 80.1721 2.39943 80.6223 1.94894C81.0728 1.49878 81.5919 1.14639 82.1886 0.891475C82.776 0.627278 83.4224 0.5 84.1076 0.5C84.7928 0.5 85.4388 0.627278 86.0262 0.891475C86.6236 1.14639 87.142 1.49878 87.5925 1.94894C88.0427 2.39943 88.395 2.91855 88.6499 3.51523C88.9141 4.10263 89.0415 4.74902 89.0415 5.43421C89.0415 6.1194 88.9141 6.76548 88.6499 7.35288C88.395 7.9499 88.0427 8.46901 87.5925 8.91917C87.142 9.36934 86.6232 9.72171 86.0262 9.97662C85.4388 10.2408 84.7924 10.3681 84.1076 10.3681C83.4221 10.3681 82.776 10.2408 82.1886 9.97662C81.5915 9.72171 81.0728 9.36934 80.6223 8.91917C80.1721 8.46901 79.8197 7.94957 79.5648 7.35288C79.3006 6.76548 79.1733 6.11907 79.1733 5.43421ZM90.859 14.1279H94.6486V5.5519H104.047V14.1279H112.369V21.353H104.047V31.4077C104.047 32.1616 104.086 32.8859 104.165 33.5906C104.243 34.3056 104.4 34.9322 104.654 35.4901C104.899 36.048 105.261 36.4885 105.741 36.8309C106.22 37.1641 106.857 37.3301 107.659 37.3301C108.462 37.3301 109.187 37.2619 109.842 37.1346C110.489 36.9973 111.135 36.8213 111.761 36.6158L113.768 43.3221C113.289 43.5181 112.77 43.6845 112.212 43.8409C111.644 43.9881 111.066 44.1247 110.489 44.2228C109.901 44.3306 109.323 44.4088 108.736 44.4675C108.149 44.5265 107.601 44.556 107.091 44.556C104.683 44.556 102.676 44.2815 101.071 43.7236C99.4648 43.1654 98.1826 42.3433 97.2425 41.2368C96.2931 40.1405 95.6275 38.7695 95.2357 37.1346C94.8442 35.4997 94.6483 33.5807 94.6483 31.4074V21.3527H90.8587V14.1275L90.859 14.1279ZM143.155 40.1992C142.392 40.8158 141.54 41.3836 140.59 41.9223C139.641 42.451 138.593 42.9207 137.438 43.3125C136.282 43.7044 135.01 44.0077 133.62 44.2231C132.24 44.4482 130.722 44.5563 129.077 44.5563C127.109 44.5563 125.327 44.3508 123.751 43.949C122.175 43.5476 120.775 42.9993 119.561 42.2945C118.338 41.5802 117.299 40.7475 116.438 39.7686C115.577 38.7894 114.862 37.7322 114.314 36.5671C113.755 35.4121 113.344 34.1883 113.09 32.9057C112.826 31.6133 112.698 30.2916 112.698 28.9309C112.698 26.9041 113.011 24.956 113.628 23.086C114.255 21.2062 115.234 19.5421 116.555 18.0931C117.877 16.6439 119.571 15.479 121.646 14.6075C123.712 13.7364 126.189 13.3054 129.077 13.3054C131.887 13.3054 134.344 13.7367 136.43 14.6075C138.525 15.479 140.248 16.7321 141.599 18.3673C142.94 20.0019 143.9 21.9991 144.448 24.3686C145.006 26.7377 145.143 29.4105 144.849 32.3963H122.508C122.508 33.0327 122.616 33.6596 122.822 34.2761C123.037 34.9027 123.389 35.4605 123.889 35.9601C124.379 36.4593 125.054 36.8608 125.906 37.1641C126.757 37.4677 127.815 37.6242 129.078 37.6242C130.243 37.6242 131.3 37.5459 132.259 37.3792C133.219 37.2227 134.08 37.0073 134.854 36.7527C135.628 36.4885 136.322 36.2044 136.92 35.8915C137.527 35.5782 138.055 35.2547 138.516 34.9318L143.156 40.1989L143.155 40.1992ZM135.607 26.2872C135.607 25.6412 135.509 24.9659 135.303 24.2612C135.108 23.5561 134.756 22.91 134.256 22.3031C133.757 21.7057 133.091 21.2161 132.249 20.8246C131.407 20.4328 130.34 20.2372 129.058 20.2372C127.775 20.2372 126.708 20.4325 125.866 20.8246C125.024 21.2161 124.359 21.7057 123.859 22.3031C123.36 22.91 123.007 23.5561 122.811 24.2612C122.606 24.9659 122.508 25.6412 122.508 26.2872H135.607Z" fill="white"/>
<path d="M52.2629 51.9994L54.7562 45.7797H57.8866V55.6024H55.6056V49.4375L53.1465 55.6024H51.3793L48.9202 49.4375V55.6024H46.6392V45.7797H49.7696L52.2629 51.9994Z" fill="white"/>
<path d="M66.6749 49.6019V51.5815H61.9485V53.6228H67.0379V55.6024H59.6676V45.7797H66.9695V47.7593H61.9485V49.6019H66.6749Z" fill="white"/>
<path d="M77.7442 50.691C77.7442 51.3988 77.6437 52.0541 77.4428 52.6569C77.2419 53.2551 76.9382 53.7735 76.5318 54.2118C76.1254 54.6457 75.6139 54.9859 74.9974 55.2325C74.3855 55.4791 73.6663 55.6024 72.8397 55.6024H68.6819V45.7797H72.8397C73.6663 45.7797 74.3855 45.903 74.9974 46.1496C75.6139 46.3962 76.1254 46.7387 76.5318 47.1771C76.9382 47.6109 77.2419 48.1292 77.4428 48.732C77.6437 49.3302 77.7442 49.9832 77.7442 50.691ZM70.9629 53.6228H72.8397C73.3101 53.6228 73.7074 53.5428 74.0316 53.383C74.3604 53.2186 74.6253 53.0017 74.8262 52.7323C75.0271 52.4583 75.171 52.1455 75.2577 51.7939C75.3491 51.4377 75.3947 51.0701 75.3947 50.691C75.3947 50.312 75.3491 49.9467 75.2577 49.5951C75.171 49.2389 75.0271 48.9261 74.8262 48.6566C74.6253 48.3826 74.3604 48.1657 74.0316 48.0059C73.7074 47.8415 73.3101 47.7593 72.8397 47.7593H70.9629V53.6228Z" fill="white"/>
<path d="M79.3265 45.7797H81.6075V55.6024H79.3265V45.7797Z" fill="white"/>
<path d="M85.3064 55.6024H82.8473L86.9093 45.7797H89.1697L93.2316 55.6024H90.7726L90.0191 53.6776H86.0599L85.3064 55.6024ZM86.8134 51.7665H89.2656L88.0395 48.6566L86.8134 51.7665Z" fill="white"/>
</svg>
